<svg width="278" height="40" viewBox="0 0 278 40" fill="none" xmlns="http://www.w3.org/2000/svg">
<g clip-path="url(#clip0_718_3515)">
<path d="M29.5638 1.74185L29.5741 1.72791C29.9181 1.26565 30.2618 0.803483 30.6059 0.341747L30.5934 0.357561C30.5324 0.329223 30.4713 0.293112 30.4103 0.257002C30.2806 0.180267 30.1508 0.10353 30.0211 0.10138L29.2641 0.09246C25.4791 0.0477992 21.6943 0.00313826 17.9093 0.000173218C14.7024 -0.00159811 11.4964 0.0105194 8.29091 0.0226353C5.77296 0.0321524 3.25528 0.0416685 0.737602 0.0444513C0.215353 0.0444513 0.0183367 0.199425 0.0245911 0.749737C0.0433546 2.77071 0.0308456 4.79486 0.0120822 6.81583C0.00895487 7.2428 0.16219 7.41359 0.59375 7.41991C1.0389 7.42442 1.48474 7.44245 1.93096 7.4605C2.42518 7.48048 2.91985 7.50049 3.41453 7.50215C9.9192 7.51164 16.427 7.5148 22.9348 7.51164C25.2396 7.50847 25.2458 7.50215 26.6405 5.65512C27.6196 4.35519 28.5921 3.04792 29.5638 1.74185Z" fill="#247ADE"/>
<path d="M3.17639 36.5773C3.49751 36.8383 3.81878 37.0996 4.1436 37.356L4.12484 37.3402C5.07392 38.0346 6.02301 38.731 6.97059 39.4263L7.75244 40C7.8056 39.9683 7.85877 39.9368 7.91505 39.9083C7.91505 39.8189 7.91471 39.7292 7.91437 39.6393C7.91366 39.459 7.91297 39.278 7.91505 39.0986L7.93551 35.5664C7.96251 30.8763 7.98951 26.1842 8.02451 21.495C8.03702 19.6542 8.04327 19.6479 9.86336 19.6416C12.1167 19.6337 14.3691 19.6282 16.6217 19.6226H16.626C18.8799 19.617 21.1339 19.6115 23.3886 19.6037C24.1861 19.6004 24.208 19.5878 24.2111 18.7655C24.2125 17.9989 24.2072 17.2317 24.2019 16.4643C24.1952 15.4876 24.1885 14.5103 24.1955 13.5343C24.1986 13.0568 24.0141 12.9208 23.57 12.9239C22.7839 12.9239 21.997 12.9134 21.21 12.9029C20.5663 12.8943 19.9225 12.8857 19.2794 12.8829C15.7707 12.867 12.2619 12.8512 8.74999 12.8638C8.18713 12.867 7.99324 12.6772 8.01513 12.1111C8.03254 11.659 8.01883 11.2058 8.0051 10.7521C7.99664 10.4725 7.98818 10.1928 7.98699 9.91304C7.98699 9.51139 7.82124 9.35009 7.42095 9.35322C5.14744 9.37217 2.87081 9.38487 0.597304 9.37852C0.121963 9.37852 -0.00312725 9.59678 0.00625449 10.0363C0.0161337 10.6358 0.0110325 11.2378 0.00593689 11.8392C0.00296748 12.1897 0 12.5398 0 12.8891C0.00144334 14.4401 0.0033863 15.991 0.00532926 17.542C0.0118058 22.7118 0.0182823 27.8817 0.00625449 33.0515C0.00625449 33.8074 0.18138 34.3261 0.841229 34.7815C1.64927 35.336 2.41243 35.9563 3.17639 36.5773Z" fill="#247ADE"/>
<path d="M33.5603 16.5697C33.5541 26.7189 24.7822 34.7396 14.7719 33.6421C14.234 33.5853 13.7207 33.2474 13.2161 32.9152C13.0459 32.8031 12.8767 32.6917 12.7079 32.5921C12.6047 32.532 12.5859 32.1872 12.6454 32.0197C12.686 31.9152 12.9612 31.8298 13.1145 31.8488C14.9095 32.0765 16.7108 32.2442 18.5059 31.9405C24.679 30.8937 28.8695 27.4052 30.9616 21.4308C32.4002 17.3193 31.9311 13.3121 30.1172 9.41565L30.0918 9.36478C30.0741 9.32965 30.0559 9.29357 30.0391 9.25748C29.8202 8.84322 29.8327 8.41623 30.2049 8.14107C30.5707 7.86592 31.3744 8.12525 31.5777 8.51111C32.4814 10.2253 33.0944 12.0376 33.3352 13.9668C33.4083 14.5437 33.4508 15.1234 33.4932 15.7041C33.5143 15.9924 33.5354 16.2811 33.5603 16.5697Z" fill="#247ADE"/>
<path d="M14.9123 25.7104C15.1643 25.711 15.4162 25.7115 15.6683 25.7115V25.7178C15.961 25.7178 16.2541 25.7171 16.5473 25.7164C17.1346 25.715 17.7227 25.7137 18.3108 25.7178C18.7017 25.7242 18.8738 25.5629 18.8675 25.1517C18.855 24.2029 18.8613 23.2509 18.8738 22.3021C18.88 21.9194 18.7111 21.7708 18.3453 21.7708C16.5846 21.7739 14.8208 21.7739 13.0602 21.7613C12.6537 21.7581 12.5005 21.9352 12.5036 22.3305C12.5161 23.2825 12.5161 24.2314 12.5036 25.1833C12.5005 25.5597 12.6474 25.721 13.0258 25.7147C13.6534 25.7079 14.2826 25.7092 14.9123 25.7104Z" fill="#247ADE"/>
<path d="M137.696 13.6803H133.115V30.6324H137.696V13.6803Z" fill="#247ADE"/>
<path d="M132.959 9.09434C132.959 9.74904 133.197 10.3151 133.672 10.7959C134.144 11.2766 134.726 11.5138 135.413 11.5138C136.102 11.5138 136.68 11.2766 137.149 10.7959C137.618 10.3151 137.853 9.74904 137.853 9.09434C137.853 8.43016 137.618 7.86403 137.149 7.39595C136.68 6.92787 136.102 6.69067 135.413 6.69067C134.726 6.69067 134.144 6.92787 133.672 7.39595C133.197 7.86403 132.959 8.43016 132.959 9.09434Z" fill="#247ADE"/>
<path d="M61.0888 7.81646H46.3126V30.6355H51.0348V21.6534H60.2132V17.8739H51.0348V11.7541H61.0888V7.81646Z" fill="#247ADE"/>
<path fill-rule="evenodd" clip-rule="evenodd" d="M62.8234 28.4255C63.2987 29.2003 63.9617 29.8076 64.8092 30.244C65.6598 30.6805 66.6417 30.8987 67.7582 30.8987C68.4868 30.8987 69.1686 30.788 69.7971 30.5666C70.4289 30.3452 70.9887 30.0258 71.4796 29.602C71.9706 29.1814 72.3771 28.6848 72.6992 28.1155H72.7931V30.6299H77.3588V19.0069C77.3588 17.8683 77.0649 16.872 76.4738 16.0181C75.8859 15.1642 75.0603 14.5031 73.997 14.035C72.9338 13.567 71.6766 13.3298 70.2287 13.3298C68.7589 13.3298 67.4892 13.5607 66.4197 14.0193C65.3534 14.4778 64.5184 15.1136 63.9179 15.9232C63.3206 16.736 62.9735 17.6627 62.8797 18.7064L62.8641 18.8962H67.0545L67.0859 18.7538C67.2015 18.2067 67.508 17.7576 68.0084 17.4034C68.5087 17.0491 69.1873 16.872 70.0411 16.872C70.9386 16.872 71.6204 17.0903 72.0894 17.5204C72.5585 17.9537 72.7931 18.5451 72.7931 19.2915V20.3276L68.6495 20.5883C67.264 20.6831 66.082 20.9424 65.1063 21.3631C64.1337 21.7869 63.3894 22.3625 62.8797 23.0963C62.37 23.83 62.1136 24.7124 62.1136 25.7435V25.7751C62.1136 26.7682 62.3512 27.6506 62.8234 28.4255ZM72.7931 23.2169L69.3375 23.4505C68.4618 23.5043 67.7957 23.7098 67.336 24.0672C66.8763 24.4277 66.6481 24.9054 66.6481 25.5063V25.5379C66.6481 26.161 66.8826 26.648 67.3517 27.0023C67.8207 27.3564 68.4524 27.5304 69.2437 27.5304C69.9223 27.5304 70.5289 27.3976 71.0637 27.1288C71.6015 26.8599 72.0237 26.4899 72.3302 26.0218C72.6398 25.5537 72.7931 25.0287 72.7931 24.4468V23.2169Z" fill="#247ADE"/>
<path d="M83.5612 29.9024C82.3197 29.1877 81.3659 28.1661 80.6904 26.8441C80.018 25.5221 79.6834 23.9534 79.6834 22.138V22.1222C79.6834 20.3099 80.0211 18.7476 80.6998 17.435C81.3784 16.1224 82.3353 15.1104 83.5706 14.3988C84.8059 13.6872 86.2569 13.3298 87.9236 13.3298C89.4467 13.3298 90.7631 13.6176 91.8797 14.1932C92.9964 14.7689 93.8682 15.5437 94.4969 16.5242C95.129 17.5046 95.4764 18.6083 95.5389 19.8292V19.9399H91.2858L91.2702 19.8007C91.1356 18.9974 90.7917 18.3237 90.2377 17.7766C89.6846 17.2263 88.9335 16.9511 87.9861 16.9511C87.2455 16.9511 86.604 17.1598 86.0536 17.5773C85.5095 17.9948 85.0842 18.5894 84.7871 19.3643C84.49 20.1391 84.3431 21.0626 84.3431 22.138V22.1537C84.3431 23.2607 84.49 24.2032 84.7871 24.9781C85.0842 25.753 85.5095 26.3443 86.0536 26.7492C86.604 27.1541 87.2515 27.3564 88.0018 27.3564C88.9179 27.3564 89.6559 27.0971 90.216 26.5753C90.7726 26.0534 91.1225 25.3671 91.2702 24.51L91.3014 24.3677H95.5545V24.4626C95.4824 25.696 95.1255 26.803 94.4908 27.7834C93.8561 28.7639 92.9834 29.5419 91.8737 30.1175C90.7605 30.69 89.4623 30.9777 87.9705 30.9777C86.2725 30.9777 84.8028 30.6203 83.5612 29.9024Z" fill="#247ADE"/>
<path d="M98.9453 25.8838C98.9453 27.6992 99.3925 28.999 100.29 29.7897C101.187 30.5804 102.564 30.9757 104.418 30.9757C104.897 30.9757 105.321 30.96 105.691 30.922C106.063 30.8841 106.372 30.8461 106.623 30.8018V27.4177C106.489 27.4398 106.341 27.4589 106.185 27.4746C106.028 27.4904 105.847 27.4968 105.638 27.4968C104.95 27.4968 104.431 27.3418 104.081 27.0318C103.733 26.7219 103.558 26.1684 103.558 25.3777V17.1578H106.623V13.6757H103.558V9.53252H98.9453V13.6757H96.6156V17.1578H98.9453V25.8838Z" fill="#247ADE"/>
<path d="M115.858 7.81646H130.634V11.7541H120.581V17.8739H129.759V21.6534H120.581V30.6355H115.858V7.81646Z" fill="#247ADE"/>
<path d="M140.745 13.6777H145.311V16.4609H145.404C145.842 15.4931 146.49 14.7277 147.343 14.1679C148.197 13.6113 149.257 13.3298 150.517 13.3298C152.362 13.3298 153.789 13.8928 154.793 15.0155C155.799 16.1383 156.303 17.6943 156.303 19.6869V30.6299H151.737V20.6515C151.737 19.5445 151.478 18.6875 150.964 18.0739C150.446 17.4635 149.677 17.1567 148.657 17.1567C147.978 17.1567 147.39 17.3148 146.89 17.6311C146.389 17.9474 145.998 18.387 145.727 18.9437C145.448 19.5034 145.311 20.1517 145.311 20.8887V30.6299H140.745V13.6777Z" fill="#247ADE"/>
<path fill-rule="evenodd" clip-rule="evenodd" d="M159.396 26.8876C159.95 28.2065 160.735 29.2186 161.758 29.9239C162.78 30.6323 163.994 30.9865 165.4 30.9865C166.204 30.9865 166.939 30.8569 167.605 30.5976C168.271 30.3382 168.856 29.9682 169.356 29.4811C169.857 28.9972 170.257 28.4184 170.561 27.7416H170.655V30.6355H175.22V7.81646H170.655V16.6246H170.561C170.257 15.9415 169.854 15.3532 169.347 14.863C168.843 14.3728 168.255 13.9964 167.589 13.7308C166.923 13.4683 166.189 13.3354 165.385 13.3354C163.987 13.3354 162.78 13.6864 161.758 14.3886C160.735 15.0907 159.95 16.0964 159.396 17.409C158.843 18.7216 158.567 20.2997 158.567 22.1436V22.1594C158.567 23.9937 158.843 25.572 159.396 26.8876ZM170.194 24.8161C169.885 25.5657 169.45 26.1444 168.888 26.5492C168.325 26.9541 167.674 27.1565 166.933 27.1565C166.173 27.1565 165.513 26.9541 164.953 26.5492C164.397 26.1444 163.968 25.5657 163.672 24.8161C163.374 24.0697 163.227 23.1841 163.227 22.1594V22.1436C163.227 21.1125 163.377 20.2238 163.68 19.4806C163.984 18.7373 164.41 18.1649 164.963 17.7632C165.516 17.3647 166.173 17.1623 166.933 17.1623C167.674 17.1623 168.321 17.3679 168.878 17.7727C169.438 18.1776 169.872 18.7563 170.185 19.5027C170.498 20.2523 170.655 21.1315 170.655 22.1436V22.1594C170.655 23.1841 170.501 24.0697 170.194 24.8161Z" fill="#247ADE"/>
<path fill-rule="evenodd" clip-rule="evenodd" d="M181.488 29.9119C180.259 29.2003 179.308 28.1851 178.642 26.8663C177.976 25.5505 177.642 23.9913 177.642 22.1854V22.1696C177.642 20.3669 177.976 18.8044 178.642 17.4824C179.308 16.1604 180.244 15.1357 181.448 14.4146C182.651 13.6935 184.075 13.3298 185.71 13.3298C187.346 13.3298 188.762 13.6809 189.953 14.383C191.148 15.0851 192.071 16.0719 192.722 17.3464C193.374 18.6242 193.7 20.1138 193.7 21.8217V23.2607H182.163C182.181 24.116 182.333 24.8523 182.62 25.4746C182.93 26.1388 183.37 26.648 183.943 27.0023C184.516 27.3564 185.2 27.5336 185.991 27.5336C186.617 27.5336 187.158 27.4323 187.617 27.2299C188.078 27.0307 188.453 26.7777 188.744 26.4709C189.035 26.1673 189.234 25.8542 189.338 25.5379L189.369 25.443H193.559L193.513 25.617C193.388 26.24 193.144 26.8663 192.778 27.4988C192.411 28.1313 191.921 28.7133 191.298 29.2383C190.679 29.7664 189.922 30.1871 189.031 30.5034C188.143 30.8197 187.096 30.9777 185.897 30.9777C184.187 30.9777 182.717 30.6236 181.488 29.9119ZM189.318 20.3352H182.216C182.285 19.7686 182.42 19.2657 182.62 18.8266C182.93 18.1561 183.355 17.6501 183.905 17.299C184.45 16.9511 185.078 16.7771 185.788 16.7771C186.498 16.7771 187.121 16.9479 187.655 17.2832C188.193 17.6216 188.612 18.1244 188.916 18.795C189.116 19.2388 189.25 19.7519 189.318 20.3352Z" fill="#247ADE"/>
<path d="M200.608 13.6777H196.042V30.6299H200.608V21.1417C200.608 20.3194 200.748 19.6236 201.03 19.0543C201.311 18.485 201.718 18.0549 202.25 17.7576C202.781 17.4635 203.422 17.3148 204.173 17.3148C204.507 17.3148 204.82 17.3401 205.111 17.3876C205.402 17.435 205.642 17.5014 205.831 17.5837V13.5037C205.665 13.4531 205.464 13.4089 205.236 13.3772C205.007 13.3456 204.767 13.3298 204.517 13.3298C203.538 13.3298 202.719 13.6208 202.062 14.1996C201.405 14.7815 200.952 15.5911 200.701 16.6349H200.608V13.6777Z" fill="#247ADE"/>
<path d="M210.631 30.2978C209.542 29.8456 208.694 29.2162 208.091 28.4097C207.487 27.6031 207.122 26.667 206.997 25.6011L206.981 25.4588H211.437L211.469 25.6011C211.615 26.2685 211.944 26.784 212.453 27.1509C212.963 27.521 213.673 27.7043 214.58 27.7043C215.165 27.7043 215.659 27.6348 216.066 27.4924C216.472 27.3502 216.788 27.1477 217.01 26.8821C217.235 26.6196 217.348 26.3033 217.348 25.9332V25.9174C217.348 25.4651 217.185 25.1015 216.863 24.8263C216.541 24.5543 215.966 24.3266 215.143 24.1463L212.297 23.5296C211.213 23.2987 210.305 22.9635 209.577 22.527C208.848 22.0905 208.301 21.5465 207.935 20.8982C207.569 20.2498 207.388 19.5034 207.388 18.659V18.6431C207.388 17.5583 207.678 16.619 208.254 15.8283C208.832 15.0377 209.651 14.4241 210.712 13.9877C211.769 13.5512 213.007 13.3298 214.424 13.3298C215.903 13.3298 217.163 13.5702 218.198 14.0509C219.237 14.5317 220.034 15.1768 220.591 15.9864C221.151 16.7993 221.445 17.7007 221.476 18.6906V18.8488H217.27L217.254 18.7223C217.182 18.1213 216.901 17.6184 216.419 17.2137C215.931 16.8088 215.269 16.6032 214.424 16.6032C213.902 16.6032 213.449 16.6791 213.064 16.8246C212.679 16.9732 212.382 17.1788 212.172 17.4413C211.963 17.707 211.859 18.0233 211.859 18.3902V18.406C211.859 18.6906 211.928 18.9468 212.069 19.1745C212.213 19.4022 212.447 19.5983 212.783 19.7659C213.117 19.9367 213.564 20.0822 214.127 20.2087L216.972 20.8255C218.733 21.1955 219.997 21.749 220.762 22.4858C221.529 23.2259 221.914 24.2159 221.914 25.4588V25.4746C221.914 26.5816 221.601 27.5463 220.975 28.3685C220.35 29.1909 219.487 29.8329 218.389 30.2915C217.288 30.7501 216.019 30.9777 214.58 30.9777C213.039 30.9777 211.722 30.7532 210.631 30.2978Z" fill="#247ADE"/>
<path fill-rule="evenodd" clip-rule="evenodd" d="M235.615 23.4561V30.6355H230.893V7.81646H239.962C241.548 7.81646 242.933 8.14222 244.121 8.79061C245.309 9.43896 246.235 10.3466 246.895 11.5169C247.558 12.687 247.89 14.0597 247.89 15.6283V15.66C247.89 17.2224 247.558 18.5856 246.895 19.7557C246.235 20.9259 245.309 21.8368 244.121 22.4851C242.933 23.1335 241.548 23.4561 239.962 23.4561H235.615ZM235.615 11.6117V19.7083H238.805C240.159 19.7083 241.213 19.3604 241.964 18.6583C242.714 17.9562 243.089 16.963 243.089 15.6758V15.6442C243.089 14.338 242.714 13.3386 241.964 12.6491C241.213 11.9597 240.159 11.6117 238.805 11.6117H235.615Z" fill="#247ADE"/>
<path d="M250.292 13.6777H254.858V16.6349H254.952C255.202 15.5911 255.655 14.7815 256.312 14.1996C256.968 13.6208 257.788 13.3298 258.767 13.3298C259.017 13.3298 259.255 13.3456 259.487 13.3772C259.715 13.4089 259.915 13.4531 260.08 13.5037V17.5837C259.893 17.5014 259.652 17.435 259.361 17.3876C259.071 17.3401 258.755 17.3148 258.423 17.3148C257.673 17.3148 257.032 17.4635 256.499 17.7576C255.968 18.0549 255.562 18.485 255.28 19.0543C254.999 19.6236 254.858 20.3194 254.858 21.1417V30.6299H250.292V13.6777Z" fill="#247ADE"/>
<path fill-rule="evenodd" clip-rule="evenodd" d="M261.784 26.8916C262.469 28.2136 263.43 29.2257 264.671 29.9277C265.912 30.6299 267.382 30.9777 269.081 30.9777C270.769 30.9777 272.233 30.6299 273.474 29.9277C274.715 29.2257 275.676 28.2167 276.357 26.8978C277.042 25.5822 277.383 24.0008 277.383 22.1537V22.1222C277.383 20.2877 277.039 18.7159 276.351 17.4034C275.664 16.0909 274.697 15.0851 273.449 14.383C272.204 13.6809 270.744 13.3298 269.065 13.3298C267.398 13.3298 265.943 13.684 264.703 14.3893C263.461 15.0977 262.494 16.1067 261.8 17.4192C261.109 18.7317 260.762 20.3004 260.762 22.1222V22.1537C260.762 23.9882 261.103 25.5696 261.784 26.8916ZM272.276 24.9781C271.979 25.753 271.561 26.3443 271.019 26.7492C270.478 27.1541 269.837 27.3564 269.096 27.3564C268.345 27.3564 267.695 27.1541 267.142 26.7492C266.588 26.3443 266.166 25.753 265.865 24.9781C265.568 24.2032 265.422 23.2607 265.422 22.1537V22.1222C265.422 21.0373 265.572 20.1107 265.875 19.339C266.178 18.5704 266.601 17.979 267.148 17.5678C267.698 17.1567 268.336 16.9511 269.065 16.9511C269.806 16.9511 270.447 17.1567 270.997 17.5615C271.542 17.9663 271.967 18.5577 272.27 19.3326C272.573 20.1075 272.723 21.0373 272.723 22.1222V22.1537C272.723 23.2607 272.573 24.2032 272.276 24.9781Z" fill="#247ADE"/>
</g>
<defs>
<clipPath id="clip0_718_3515">
<rect width="277.383" height="40" fill="white"/>
</clipPath>
</defs>
</svg>
